<?xml version="1.0" ?><svg id="Layer_1" style="enable-background:new 0 0 128 128;" version="1.1" viewBox="0 0 128 128" xml:space="preserve" xmlns="http://www.w3.org/2000/svg" xmlns:xlink="http://www.w3.org/1999/xlink"><style type="text/css">
	.st0{fill:none;stroke:#1D1952;stroke-width:4;stroke-linecap:round;stroke-miterlimit:10;}
	.st1{fill:#F73959;}
	.st2{opacity:0.5;fill:#C02344;}
	.st3{fill:none;stroke:#FFFFFF;stroke-width:4;stroke-linecap:round;stroke-linejoin:round;stroke-miterlimit:10;}
	.st4{fill:#F95F80;}
	.st5{fill:#FFFFFF;}
	.st6{fill:#1D1952;}
	.st7{fill:#EF8FA9;}
	.st8{fill:none;stroke:#AAAAE5;stroke-width:4;stroke-linecap:round;stroke-miterlimit:10;}
	.st9{fill:#AAAAE5;}
	.st10{fill:#FFCE00;}
	.st11{fill:#8E072B;}
	.st12{opacity:0.5;fill:#F73959;}
	.st13{fill:none;stroke:#C02344;stroke-width:4;stroke-linecap:round;stroke-linejoin:round;stroke-miterlimit:10;}
	.st14{fill:none;stroke:#FFAA00;stroke-width:4;stroke-linecap:round;stroke-linejoin:round;stroke-miterlimit:10;}
	.st15{fill:#FFAA00;}
	.st16{fill:none;stroke:#FFFFFF;stroke-width:3;stroke-linecap:round;stroke-linejoin:round;stroke-miterlimit:10;}
	.st17{fill:none;stroke:#1D1952;stroke-width:3;stroke-linecap:round;stroke-miterlimit:10;}
	.st18{fill:none;stroke:#C02344;stroke-width:6;stroke-linecap:round;stroke-linejoin:round;stroke-miterlimit:10;}
	.st19{fill:none;stroke:#AAAAE5;stroke-width:4;stroke-linecap:round;stroke-linejoin:round;stroke-miterlimit:10;}
	.st20{fill:#E87498;}
	.st21{fill:none;stroke:#1D1952;stroke-width:4;stroke-miterlimit:10;}
	.st22{fill:none;stroke:#FFAA00;stroke-width:4;stroke-linecap:round;stroke-miterlimit:10;}
	.st23{fill:#7A61F7;}
	.st24{fill:none;stroke:#FFCE00;stroke-width:4;stroke-linecap:round;stroke-miterlimit:10;}
</style><g><g><path class="st1" d="M62.5,26c-17.2-2-23.4,10.9-23.4,10.9s-10.7-9.5-25.8-1.1C-5.8,46.4-2.6,73.7,18.2,86.6    c15.9,9.8,27.1,12.9,31.5,13.8c1.3,0.3,2.7,0,3.8-0.8c3.7-2.5,12.8-9.6,23.8-24.8C91.7,55.1,84.2,28.5,62.5,26z"/><path class="st2" d="M77.4,68.3c-6.7,9.2-12.7,15.5-17.2,19.5c-5.1,4.5-12.2,6-18.6,3.7C36,89.4,28,85.9,18.3,80    C7.8,73.5,1.8,63.3,0.9,53.5c-1.7,11.6,4.4,25.1,17.3,33.1c15.9,9.8,27.1,12.9,31.5,13.8c1.3,0.3,2.7,0,3.8-0.8    c3.7-2.5,12.8-9.6,23.8-24.8c5.6-7.7,7.9-16.5,7.3-24.4C83.8,56.5,81.5,62.6,77.4,68.3z"/><path class="st3" d="M21.6,38.6c0.3-0.1,0.5-0.1,0.8-0.2"/><path class="st3" d="M12,43.8c1.2-1.1,2.5-2.1,4.1-3"/><path class="st3" d="M61.1,31.7c0.3,0,0.5,0,0.8,0.1"/><g><path class="st0" d="M49.9,51.2c0.9,3.1,4.2,4.9,7.2,3.9c3.1-0.9,4.9-4.2,3.9-7.2"/><path class="st0" d="M21.2,58.2c0.9,3.1,4.2,4.9,7.2,3.9c3.1-0.9,4.9-4.2,3.9-7.2"/><path class="st0" d="M41,71.4c0.9,3.1,3.5,5.1,5.7,4.4s3.3-3.7,2.4-6.8"/></g><path class="st3" d="M49.9,33.9c1.4-0.8,3.1-1.5,5.2-1.9"/></g><g><path class="st7" d="M71,40.8c15.7-1.8,21.3,9.9,21.3,9.9s9.7-8.7,23.5-1c17.4,9.6,14.5,34.5-4.5,46.2    c-14.5,8.9-24.6,11.7-28.6,12.6c-1.2,0.3-2.5,0-3.5-0.7c-3.4-2.3-11.7-8.8-21.7-22.5C44.5,67.3,51.3,43.1,71,40.8z"/><path class="st20" d="M57.4,79.3C63.5,87.7,69,93.3,73.1,97c4.6,4.1,11.1,5.4,16.9,3.4c5.2-1.8,12.4-5,21.2-10.4    c9.6-5.9,15-15.1,15.9-24.1c1.6,10.6-4,22.9-15.7,30.1c-14.5,8.9-24.6,11.7-28.6,12.6c-1.2,0.3-2.5,0-3.5-0.7    c-3.4-2.3-11.7-8.8-21.7-22.5c-5.1-7-7.2-15-6.6-22.2C51.6,68.5,53.7,74.1,57.4,79.3z"/><path class="st3" d="M108.3,52.3c-0.2-0.1-0.5-0.1-0.7-0.2"/><path class="st3" d="M117.1,57c-1.1-1-2.3-1.9-3.7-2.7"/><path class="st3" d="M72.4,46c-0.2,0-0.5,0-0.7,0.1"/><path class="st3" d="M82.5,48c-1.3-0.8-2.9-1.4-4.7-1.8"/><path class="st0" d="M81.4,65.3c-0.7,2.4-3.2,3.8-5.6,3.1c-2.4-0.7-3.8-3.2-3.1-5.6"/><path class="st0" d="M103.7,70.6c-0.7,2.4-3.2,3.8-5.6,3.1C95.7,73,94.3,70.4,95,68"/><path class="st0" d="M88.3,80.9c-0.7,2.4-2.7,3.9-4.4,3.4s-2.6-2.9-1.8-5.3"/></g><path class="st4" d="M66.9,107.7c-3.1-0.1-4,2.3-4,2.3s-2-1.5-4.6,0.2c-3.2,2.1-2.3,6.9,1.6,8.9c2.9,1.5,5,1.9,5.7,2   c0.2,0,0.5,0,0.7-0.2c0.6-0.5,2.1-1.9,3.8-4.7C72.5,112.4,70.8,107.8,66.9,107.7z"/><path class="st4" d="M99.7,16.4c-3-2.5-5.8-0.8-5.8-0.8s-0.8-3.1-4.8-3.4c-5-0.4-7.8,5.2-5.4,10.3c1.8,3.8,3.5,5.8,4.3,6.6   c0.2,0.2,0.5,0.3,0.8,0.3c1,0,3.6-0.2,7.6-1.7C101.6,25.6,103.5,19.6,99.7,16.4z"/><path class="st7" d="M63.7,7.6c-2.8,0.1-3.4,2.3-3.4,2.3s-1.9-1.2-4.1,0.5c-2.7,2.1-1.5,6.4,2.1,7.9c2.8,1.1,4.6,1.3,5.3,1.4   c0.2,0,0.4-0.1,0.6-0.2c0.5-0.5,1.8-1.8,3.1-4.5C69,11.4,67.1,7.4,63.7,7.6z"/><circle class="st8" cx="38.4" cy="18.3" r="4.1"/><circle class="st8" cx="42.5" cy="108.6" r="4.1"/><circle class="st8" cx="107.9" cy="35.8" r="4.1"/></g></svg>